<?xml version="1.0" encoding="UTF-8" standalone="no"?>
<!DOCTYPE svg PUBLIC "-//W3C//DTD SVG 1.1//EN" "http://www.w3.org/Graphics/SVG/1.1/DTD/svg11.dtd">
<svg width="100%" height="100%" viewBox="0 0 470 286" version="1.1" xmlns="http://www.w3.org/2000/svg" xmlns:xlink="http://www.w3.org/1999/xlink" xml:space="preserve" xmlns:serif="http://www.serif.com/" style="fill-rule:evenodd;clip-rule:evenodd;stroke-linejoin:round;stroke-miterlimit:2;">
    <g transform="matrix(1.33333,0,0,1.33333,-1574.28,-1350.67)">
        <g transform="matrix(0.772604,0,0,0.772604,252.703,211.026)">
            <circle cx="1274" cy="1278" r="37" style="fill:rgb(108,108,108);"/>
        </g>
        <path d="M1200.06,1187.87C1188.73,1183.38 1180.71,1172.33 1180.71,1159.41L1180.71,1043.59C1180.71,1026.71 1194.42,1013 1211.3,1013L1403.12,1013C1420.01,1013 1433.71,1026.71 1433.71,1043.59L1433.71,1050.45C1433.71,1050.48 1433.73,1050.52 1433.75,1050.55C1433.78,1050.57 1433.82,1050.59 1433.85,1050.59C1433.85,1050.59 1433.85,1050.59 1433.85,1050.59L1503.15,1050.59C1519.62,1050.59 1533,1063.96 1533,1080.44L1533,1140.15C1533,1156.62 1519.62,1170 1503.15,1170L1480.58,1170C1473.69,1170 1467.06,1167.41 1461.99,1162.75C1455.41,1156.69 1446.63,1153 1437,1153C1416.58,1153 1400,1169.58 1400,1190L1274,1190C1274,1169.58 1257.42,1153 1237,1153C1217.3,1153 1201.17,1168.44 1200.06,1187.87Z" style="fill:rgb(108,108,108);"/>
        <g transform="matrix(0.772604,0,0,0.772604,452.703,211.026)">
            <circle cx="1274" cy="1278" r="37" style="fill:rgb(108,108,108);"/>
        </g>
    </g>
</svg>
